<svg width="1041" height="211" viewBox="0 0 1041 211" fill="none" xmlns="http://www.w3.org/2000/svg">
  <defs>
    <style>
      path {
        fill: hsl(220deg 0% 5%);
      }
    </style>
  </defs>
  <path d="M25.0781 3.25H65.2969L111 145.703L156.703 3.25H196.922L127.312 208H94.6875L25.0781 3.25ZM0.609375 3.25H42.2344L49.9688 160.188V208H0.609375V3.25ZM179.766 3.25H221.531V208H172.031V160.188L179.766 3.25ZM305.625 3.25V208H256.406V3.25H305.625ZM456.797 138.672H506.016C505.359 152.922 501.516 165.484 494.484 176.359C487.453 187.234 477.703 195.719 465.234 201.812C452.859 207.812 438.234 210.812 421.359 210.812C407.672 210.812 395.438 208.516 384.656 203.922C373.969 199.328 364.875 192.719 357.375 184.094C349.969 175.469 344.297 165.016 340.359 152.734C336.516 140.453 334.594 126.625 334.594 111.25V100.141C334.594 84.7656 336.609 70.9375 340.641 58.6562C344.766 46.2812 350.578 35.7812 358.078 27.1562C365.672 18.4375 374.766 11.7813 385.359 7.1875C395.953 2.59375 407.719 0.296875 420.656 0.296875C438.469 0.296875 453.516 3.48438 465.797 9.85938C478.078 16.2344 487.594 25 494.344 36.1562C501.094 47.2188 505.078 59.8281 506.297 73.9844H457.078C456.891 66.2969 455.578 59.875 453.141 54.7188C450.703 49.4688 446.859 45.5313 441.609 42.9062C436.359 40.2812 429.375 38.9688 420.656 38.9688C414.562 38.9688 409.266 40.0938 404.766 42.3438C400.266 44.5938 396.516 48.1562 393.516 53.0312C390.516 57.9063 388.266 64.2344 386.766 72.0156C385.359 79.7031 384.656 88.9844 384.656 99.8594V111.25C384.656 122.125 385.312 131.406 386.625 139.094C387.938 146.781 390.047 153.062 392.953 157.938C395.859 162.812 399.609 166.422 404.203 168.766C408.891 171.016 414.609 172.141 421.359 172.141C428.859 172.141 435.188 170.969 440.344 168.625C445.5 166.188 449.484 162.531 452.297 157.656C455.109 152.688 456.609 146.359 456.797 138.672ZM578.719 3.25V208H529.359V3.25H578.719ZM700.922 3.25L621.609 107.031L575.203 157.797L566.203 112.516L595.875 67.5156L640.031 3.25H700.922ZM642.562 208L589.688 115.75L628.078 87.4844L700.922 208H642.562ZM854.484 170.031V208H745.359V170.031H854.484ZM762.938 3.25V208H713.578V3.25H762.938ZM840.422 84.5312V121.234H745.359V84.5312H840.422ZM854.906 3.25V41.3594H745.359V3.25H854.906ZM911.859 3.25L949.547 92.125L987.375 3.25H1040.53L974.719 134.453V208H924.516V134.453L858.562 3.25H911.859Z" fill="black"/>
</svg>
